<svg id="Layer_1" data-name="Layer 1" xmlns="http://www.w3.org/2000/svg" viewBox="0 0 306.26 61"><defs><style>.cls-1{fill:#ec2030;}.cls-2{fill:#868586;}.cls-3{fill:#5a5b5c;}.cls-4{fill:none;stroke:#ed1e24;stroke-miterlimit:10;opacity:0;}</style></defs><title>Logo</title><path class="cls-1" d="M57.69,22h2.62v.9a4.09,4.09,0,0,1,2.87-1.12,3.51,3.51,0,0,1,3.55,3.75v6H64V26.28c0-1.28-.62-2-1.75-2s-1.75.71-1.75,2v5.21H57.69V22m26.41,4.74a5.06,5.06,0,1,1,5.06,5,5,5,0,0,1-5.06-5m2.74,0a2.34,2.34,0,1,0,2.34-2.39,2.33,2.33,0,0,0-2.34,2.39M46,26.75a5.06,5.06,0,1,1,5.06,5,5,5,0,0,1-5.06-5m2.74,0a2.34,2.34,0,1,0,2.34-2.39,2.33,2.33,0,0,0-2.34,2.39M107.66,21h2.81V18.54h-2.81Zm0,10.53h2.81V22h-2.81Zm5,0h2.81V18.54h-2.81Zm-14.14,0H95.84V18.54h2.7v4.22a4.19,4.19,0,0,1,2.91-1,4.75,4.75,0,0,1,4.58,5,4.85,4.85,0,0,1-4.61,5,4.24,4.24,0,0,1-2.88-.95l0,.73m4.67-4.75a2.37,2.37,0,1,0-2.37,2.38,2.32,2.32,0,0,0,2.37-2.38m-73.5,4.75h3.25l2.92-3.76,1.82,1.85L33.5,34.8h3.26l2.67-3.46,5,5.11h3.94l-7.22-7.26L46.86,22H43.6l-4.2,5.4-1.82-1.83,4.68-5.89H39L35.8,23.79,34.07,22H30.18L34.1,26l-4.42,5.53M20.5,18.54V31.49H29V29.07H23.4V26h5.37V23.64H23.4V21H29V18.54H20.5m48.45,0V31.49h2.73V21.71h.12l2.35,9.78h3.06l2.4-9.78h.12v9.78h2.73V18.54H78L75.8,28h-.1l-2.16-9.45H69" transform="translate(0.73 0.5)"/><path class="cls-2" d="M64.56,45.68H68.1v.62H63.9V39.8H68.1v.61H64.56v2.33h2.88v.62H64.56Z" transform="translate(0.73 0.5)"/><path class="cls-2" d="M73.15,43.84V46.3h-.63V43.86c0-1.23-.36-1.78-1.3-1.78a5.28,5.28,0,0,0-1.24.19v4h-.63V41.89a6,6,0,0,1,1.88-.35C72.6,41.53,73.15,42.22,73.15,43.84Z" transform="translate(0.73 0.5)"/><path class="cls-2" d="M78.17,43.88c0,.1,0,.21,0,.32H75c0,1.19.56,1.66,1.55,1.66a3,3,0,0,0,1.42-.34L78,46a3.16,3.16,0,0,1-1.54.38c-1.48,0-2.15-.75-2.15-2.44s.65-2.45,2.06-2.45S78.22,42.29,78.17,43.88ZM75,43.67h2.6c0-1.15-.37-1.61-1.19-1.61S75,42.52,75,43.67Z" transform="translate(0.73 0.5)"/><path class="cls-2" d="M81.76,41.59v.52a3,3,0,0,0-.47,0,6,6,0,0,0-1.3.16V46.3h-.63V41.81a8.77,8.77,0,0,1,1.83-.28A2.51,2.51,0,0,1,81.76,41.59Z" transform="translate(0.73 0.5)"/><path class="cls-2" d="M86,41.73v4.58c0,1.55-.51,2-2,2A5.36,5.36,0,0,1,82.3,48l.13-.51a4.67,4.67,0,0,0,1.64.37c1,0,1.35-.36,1.35-1.54v-.15a3.79,3.79,0,0,1-1.36.26c-1.31,0-1.9-.73-1.9-2.52s.59-2.36,1.93-2.36A10.32,10.32,0,0,1,86,41.73Zm-.63,3.85V42.16a8.83,8.83,0,0,0-1.3-.1c-.93,0-1.33.55-1.33,1.84s.36,2,1.35,2A3.09,3.09,0,0,0,85.42,45.58Z" transform="translate(0.73 0.5)"/><path class="cls-2" d="M91,41.65l-2.12,6.61h-.61l.63-1.95H88.5L87,41.65h.64l1.27,4.17H89l1.33-4.17Z" transform="translate(0.73 0.5)"/><path class="cls-2" d="M94.33,39.34H95v7h-.63Z" transform="translate(0.73 0.5)"/><path class="cls-2" d="M97.06,40.12v.76h-.71v-.76Zm0,1.52V46.3h-.63V41.65Z" transform="translate(0.73 0.5)"/><path class="cls-2" d="M98,41.65h.65l1.29,4.21H100l1.32-4.21H102l-1.51,4.66h-1Z" transform="translate(0.73 0.5)"/><path class="cls-2" d="M106.4,43.88c0,.1,0,.21,0,.32H103.2c0,1.19.56,1.66,1.55,1.66a3,3,0,0,0,1.42-.34l.08.52a3.16,3.16,0,0,1-1.54.38c-1.48,0-2.15-.75-2.15-2.44s.65-2.45,2.06-2.45S106.45,42.29,106.4,43.88Zm-3.2-.21h2.6c0-1.15-.37-1.61-1.19-1.61S103.27,42.52,103.2,43.67Z" transform="translate(0.73 0.5)"/><path class="cls-2" d="M107.26,46.28l.08-.53a6.14,6.14,0,0,0,1.2.15c.75,0,1.08-.2,1.08-.69s-.18-.64-.63-.88L108,43.8c-.57-.31-.81-.64-.81-1.11,0-.74.56-1.15,1.55-1.15a5.6,5.6,0,0,1,1.3.13l-.06.52a4.45,4.45,0,0,0-1.21-.15c-.6,0-1,.24-1,.64s.16.47.59.7l.94.51a1.39,1.39,0,0,1,.86,1.31c0,.81-.57,1.22-1.64,1.22A7.78,7.78,0,0,1,107.26,46.28Z" transform="translate(0.73 0.5)"/><path class="cls-2" d="M117.51,43.84V46.3h-.63V43.86c0-1.23-.36-1.78-1.29-1.78a4.18,4.18,0,0,0-1.25.23v4h-.63v-7h.63v2.4a4.38,4.38,0,0,1,1.27-.21C117,41.53,117.51,42.22,117.51,43.84Z" transform="translate(0.73 0.5)"/><path class="cls-2" d="M122.53,43.88c0,.1,0,.21,0,.32h-3.19c0,1.19.56,1.66,1.55,1.66a3,3,0,0,0,1.42-.34l.08.52a3.16,3.16,0,0,1-1.54.38c-1.48,0-2.15-.75-2.15-2.44s.65-2.45,2.06-2.45S122.58,42.29,122.53,43.88Zm-3.2-.21h2.6c0-1.15-.37-1.61-1.19-1.61S119.41,42.52,119.33,43.67Z" transform="translate(0.73 0.5)"/><path class="cls-2" d="M126.12,41.59v.52a3,3,0,0,0-.47,0,6,6,0,0,0-1.3.16V46.3h-.63V41.81a8.77,8.77,0,0,1,1.83-.28A2.51,2.51,0,0,1,126.12,41.59Z" transform="translate(0.73 0.5)"/><path class="cls-2" d="M130.35,43.88c0,.1,0,.21,0,.32h-3.19c0,1.19.56,1.66,1.55,1.66a3,3,0,0,0,1.42-.34l.08.52a3.16,3.16,0,0,1-1.54.38c-1.48,0-2.15-.75-2.15-2.44s.65-2.45,2.06-2.45S130.4,42.29,130.35,43.88Zm-3.2-.21h2.6c0-1.15-.37-1.61-1.19-1.61S127.23,42.52,127.15,43.67Z" transform="translate(0.73 0.5)"/><path class="cls-3" d="M136,30.48V31.7h-8v-13h1.3V30.48Z" transform="translate(0.73 0.5)"/><path class="cls-3" d="M139.32,19.36v1.52h-1.41V19.36Zm-.07,3V31.7H138V22.4Z" transform="translate(0.73 0.5)"/><path class="cls-3" d="M148.7,23.31,143,30.67h5.73v1h-7.3V30.8l5.75-7.36h-5.71v-1h7.27Z" transform="translate(0.73 0.5)"/><path class="cls-3" d="M157.46,25.22V31.3a10.7,10.7,0,0,1-3.69.7c-2,0-3.47-.89-3.47-2.8,0-1.54.8-2.69,2.93-2.87l3-.24v-.82c0-1.48-.67-2.06-2.17-2.06-.72,0-2,.13-2.89.24l-.15-1a28.83,28.83,0,0,1,3.13-.26C156.56,22.16,157.46,23.27,157.46,25.22ZM153.85,31a7.37,7.37,0,0,0,2.35-.44V27.09l-2.73.24c-1.46.11-1.95.83-1.95,1.84C151.53,30.41,152.48,31,153.85,31Z" transform="translate(0.73 0.5)"/><path class="cls-3" d="M174.91,22.82c0,3-1.48,4.45-4.45,4.45h-4V31.7h-1.3v-13h5.27C173.42,18.71,174.91,20,174.91,22.82Zm-1.37,0c0-2-1-2.89-3.08-2.89h-4V26h4C172.57,26,173.54,25,173.54,22.82Z" transform="translate(0.73 0.5)"/><path class="cls-3" d="M184.64,26.79V31.7h-1.26V26.83c0-2.47-.72-3.56-2.58-3.56a8.37,8.37,0,0,0-2.5.46v8H177V17.8h1.26v4.8a8.74,8.74,0,0,1,2.54-.43C183.56,22.17,184.64,23.55,184.64,26.79Z" transform="translate(0.73 0.5)"/><path class="cls-3" d="M194.13,25.22V31.3a10.7,10.7,0,0,1-3.69.7c-2,0-3.47-.89-3.47-2.8,0-1.54.8-2.69,2.93-2.87l3-.24v-.82c0-1.48-.67-2.06-2.17-2.06-.72,0-2,.13-2.89.24l-.15-1a28.84,28.84,0,0,1,3.13-.26C193.22,22.16,194.13,23.27,194.13,25.22ZM190.51,31a7.37,7.37,0,0,0,2.35-.44V27.09l-2.73.24c-1.46.11-1.95.83-1.95,1.84C188.2,30.41,189.14,31,190.51,31Z" transform="translate(0.73 0.5)"/><path class="cls-3" d="M196.19,31.65l.17-1.06a12.17,12.17,0,0,0,2.39.3c1.5,0,2.15-.41,2.15-1.37,0-.78-.35-1.28-1.26-1.76l-1.89-1.06c-1.13-.61-1.61-1.28-1.61-2.22,0-1.48,1.11-2.3,3.1-2.3a11.17,11.17,0,0,1,2.59.26l-.13,1a8.84,8.84,0,0,0-2.41-.3c-1.21,0-1.93.48-1.93,1.28,0,.56.32.95,1.19,1.39l1.87,1a2.78,2.78,0,0,1,1.72,2.61c0,1.61-1.13,2.45-3.28,2.45A15.34,15.34,0,0,1,196.19,31.65Z" transform="translate(0.73 0.5)"/><path class="cls-3" d="M211.46,26.87c0,.2,0,.43,0,.63h-6.38c.09,2.37,1.11,3.32,3.1,3.32a6,6,0,0,0,2.84-.69l.17,1a6.31,6.31,0,0,1-3.08.76c-3,0-4.3-1.5-4.3-4.88s1.3-4.89,4.12-4.89C210.42,22.16,211.55,23.68,211.46,26.87Zm-6.4-.43h5.19c0-2.3-.74-3.23-2.37-3.23S205.21,24.14,205.07,26.44Z" transform="translate(0.73 0.5)"/><path class="cls-3" d="M222.55,18.71v13h-1.26V20.06L218.1,22l-.46-1,3.89-2.28Z" transform="translate(0.73 0.5)"/><path class="cls-3" d="M240.82,22.82c0,3-1.48,4.45-4.45,4.45h-4V31.7h-1.3v-13h5.27C239.34,18.71,240.82,20,240.82,22.82Zm-1.37,0c0-2-1-2.89-3.08-2.89h-4V26h4C238.49,26,239.45,25,239.45,22.82Z" transform="translate(0.73 0.5)"/><path class="cls-3" d="M247.76,22.29v1a5.85,5.85,0,0,0-.95-.07,12,12,0,0,0-2.6.32V31.7H243v-9a17.53,17.53,0,0,1,3.65-.56A5,5,0,0,1,247.76,22.29Z" transform="translate(0.73 0.5)"/><path class="cls-3" d="M248.53,27.05c0-3.24,1.41-4.88,4.23-4.88S257,23.81,257,27.05s-1.41,4.88-4.21,4.88S248.53,30.29,248.53,27.05Zm7.14,0c0-2.56-1-3.82-2.91-3.82s-2.95,1.26-2.95,3.82,1,3.82,2.95,3.82S255.67,29.61,255.67,27.05Z" transform="translate(0.73 0.5)"/><path class="cls-3" d="M256.76,35.6l.13-.95a2.72,2.72,0,0,0,1,.17c1.08,0,1.48-.65,1.48-3.13V22.4h1.26v9.27c0,3.1-.74,4.15-2.48,4.15A4.39,4.39,0,0,1,256.76,35.6Zm3.91-16.24v1.52h-1.41V19.36Z" transform="translate(0.73 0.5)"/><path class="cls-3" d="M270.65,26.87c0,.2,0,.43,0,.63h-6.38c.09,2.37,1.11,3.32,3.1,3.32a6,6,0,0,0,2.84-.69l.17,1a6.32,6.32,0,0,1-3.08.76c-3,0-4.3-1.5-4.3-4.88s1.3-4.89,4.12-4.89C269.61,22.16,270.74,23.68,270.65,26.87Zm-6.4-.43h5.19c0-2.3-.74-3.23-2.37-3.23S264.4,24.14,264.25,26.44Z" transform="translate(0.73 0.5)"/><path class="cls-3" d="M272.5,27.05c0-3.39,1.37-4.88,3.71-4.88a12.77,12.77,0,0,1,3,.37l-.13,1.06a12.41,12.41,0,0,0-2.61-.33c-1.87,0-2.73,1.21-2.73,3.78s1,3.78,3.1,3.78a6.92,6.92,0,0,0,2.21-.43l.11,1.08a7.1,7.1,0,0,1-2.45.45C273.93,31.93,272.5,30.44,272.5,27.05Z" transform="translate(0.73 0.5)"/><path class="cls-3" d="M285.44,31.69a7.08,7.08,0,0,1-1.65.24c-1.82,0-2.21-.76-2.21-3.19v-5.3h-1.3v-1h1.3V20h1.26V22.4h2.47v1h-2.47v5.19c0,1.89.17,2.21,1.24,2.21a4.36,4.36,0,0,0,1.24-.19Z" transform="translate(0.73 0.5)"/><path class="cls-2" d="M132.26,38.2h-.7V40h-.2V38.2h-.7V38h1.6Z" transform="translate(0.73 0.5)"/><path class="cls-2" d="M134.39,38v2h-.19V38.23h0l-.6,1.78h-.21l-.6-1.78h0V40h-.19V38h.35l.58,1.74L134,38Z" transform="translate(0.73 0.5)"/><rect class="cls-4" x="0.5" y="0.5" width="305.26" height="60"/></svg>